<?xml version="1.0" encoding="UTF-8"?>
<svg id="Layer_1" data-name="Layer 1" xmlns="http://www.w3.org/2000/svg" viewBox="0 0 591.55 127.49">
  <defs>
    <style>
      .cls-1 {
        fill: #be6928;
      }

      .cls-2 {
        fill: #2e8aa9;
      }
    </style>
  </defs>
  <g>
    <path class="cls-2" d="M129.27,41.61v8.29h-14.01v38.54h-9.85v-38.54h-14.07v-8.29h37.93Z"/>
    <path class="cls-2" d="M162.95,68.1v20.33h-9.24v-21.06c0-1.86-.32-3.37-.95-4.51-.83-1.61-2.39-2.41-4.7-2.41s-4.21.8-5.45,2.4c-1.24,1.6-1.86,3.88-1.86,6.85v18.74h-9.02v-46.67h9.02v16.55c1.31-2.01,2.83-3.42,4.56-4.21,1.73-.79,3.54-1.19,5.45-1.19,2.14,0,4.08.37,5.83,1.11,1.75.74,3.18,1.88,4.3,3.4.95,1.29,1.54,2.62,1.75,3.99.21,1.37.32,3.6.32,6.69Z"/>
    <path class="cls-2" d="M198.44,78.27c-.23,2.05-1.3,4.14-3.21,6.26-2.97,3.37-7.12,5.05-12.45,5.05-4.41,0-8.29-1.42-11.66-4.26s-5.05-7.46-5.05-13.85c0-5.99,1.52-10.59,4.56-13.79s6.98-4.8,11.83-4.8c2.88,0,5.47.54,7.78,1.62s4.21,2.79,5.72,5.12c1.36,2.05,2.23,4.44,2.64,7.15.23,1.59.33,3.88.29,6.86h-23.7c.13,3.47,1.22,5.91,3.27,7.31,1.25.87,2.75,1.3,4.51,1.3,1.86,0,3.38-.53,4.54-1.59.63-.57,1.2-1.37,1.68-2.38h9.25ZM189.48,67.66c-.15-2.39-.87-4.21-2.18-5.45-1.3-1.24-2.92-1.86-4.84-1.86-2.1,0-3.72.66-4.88,1.97-1.16,1.31-1.88,3.09-2.18,5.34h14.07Z"/>
    <path class="cls-1" d="M212.07,88.44h-9.12v-46.83h14.23l8.51,36.82,8.45-36.82h14.07v46.83h-9.12v-31.67c0-.91.01-2.19.03-3.83.02-1.64.03-2.91.03-3.8l-8.86,39.3h-9.5l-8.8-39.3c0,.89.01,2.16.03,3.8.02,1.64.03,2.92.03,3.83v31.67Z"/>
    <path class="cls-1" d="M283.62,78.27c-.23,2.05-1.3,4.14-3.21,6.26-2.96,3.37-7.12,5.05-12.45,5.05-4.41,0-8.29-1.42-11.66-4.26s-5.05-7.46-5.05-13.85c0-5.99,1.52-10.59,4.56-13.79s6.98-4.8,11.83-4.8c2.88,0,5.47.54,7.78,1.62s4.21,2.79,5.72,5.12c1.35,2.05,2.23,4.44,2.64,7.15.23,1.59.33,3.88.29,6.86h-23.7c.13,3.47,1.22,5.91,3.27,7.31,1.25.87,2.75,1.3,4.51,1.3,1.86,0,3.38-.53,4.54-1.59.64-.57,1.2-1.37,1.68-2.38h9.25ZM274.66,67.66c-.15-2.39-.87-4.21-2.18-5.45-1.3-1.24-2.92-1.86-4.84-1.86-2.1,0-3.72.66-4.88,1.97-1.15,1.31-1.88,3.09-2.18,5.34h14.07Z"/>
    <path class="cls-1" d="M319.07,41.67v46.76h-8.8v-4.8c-1.29,2.05-2.76,3.55-4.42,4.48-1.65.93-3.71,1.4-6.16,1.4-4.04,0-7.45-1.64-10.21-4.91-2.76-3.27-4.15-7.47-4.15-12.6,0-5.91,1.36-10.56,4.08-13.95s6.36-5.08,10.91-5.08c2.1,0,3.96.46,5.59,1.38s2.96,2.2,3.97,3.83v-16.52h9.18ZM294.67,71.35c0,3.2.64,5.75,1.91,7.66,1.25,1.93,3.16,2.89,5.72,2.89s4.51-.95,5.85-2.86c1.33-1.91,2-4.37,2-7.4,0-4.24-1.07-7.26-3.21-9.09-1.31-1.1-2.84-1.65-4.57-1.65-2.65,0-4.59,1-5.83,3-1.24,2-1.86,4.49-1.86,7.45Z"/>
    <path class="cls-1" d="M334.01,41.32v8.36h-9.18v-8.36h9.18ZM334.01,53.81v34.63h-9.18v-34.63h9.18Z"/>
    <path class="cls-1" d="M341.47,57.56c2.39-3.05,6.5-4.57,12.33-4.57,3.79,0,7.16.75,10.1,2.26,2.94,1.5,4.42,4.34,4.42,8.51v15.88c0,1.1.02,2.44.06,4,.06,1.19.24,1.99.54,2.41s.74.77,1.33,1.05v1.33h-9.85c-.28-.7-.47-1.36-.57-1.97-.11-.61-.19-1.31-.25-2.1-1.25,1.36-2.69,2.51-4.32,3.46-1.95,1.12-4.15,1.68-6.61,1.68-3.13,0-5.72-.9-7.77-2.68s-3.07-4.33-3.07-7.61c0-4.26,1.64-7.34,4.92-9.25,1.8-1.04,4.45-1.78,7.94-2.22l3.08-.38c1.67-.21,2.87-.48,3.59-.79,1.29-.55,1.94-1.41,1.94-2.57,0-1.42-.49-2.4-1.48-2.94-.98-.54-2.43-.81-4.34-.81-2.14,0-3.65.53-4.54,1.59-.64.78-1.06,1.84-1.27,3.18h-8.74c.19-3.03,1.04-5.52,2.54-7.47ZM348.21,81.89c.85.7,1.88,1.05,3.11,1.05,1.95,0,3.74-.57,5.38-1.72,1.64-1.14,2.49-3.23,2.56-6.26v-3.37c-.57.36-1.15.65-1.73.87-.58.22-1.38.43-2.4.62l-2.03.38c-1.91.34-3.27.75-4.1,1.24-1.4.83-2.1,2.11-2.1,3.84,0,1.55.43,2.66,1.3,3.33Z"/>
    <path class="cls-2" d="M374.49,41.61h9.78v38.41h23.19v8.42h-32.98v-46.83Z"/>
    <path class="cls-2" d="M439.77,58.19c2.92,3.66,4.38,8,4.38,12.99s-1.46,9.43-4.38,13.04c-2.92,3.61-7.36,5.42-13.31,5.42s-10.39-1.81-13.31-5.42c-2.92-3.61-4.38-7.96-4.38-13.04s1.46-9.33,4.38-12.99,7.36-5.5,13.31-5.5,10.39,1.83,13.31,5.5ZM426.43,60.35c-2.65,0-4.69.94-6.12,2.81-1.43,1.88-2.14,4.55-2.14,8.02s.71,6.15,2.14,8.04,3.47,2.83,6.12,2.83,4.68-.94,6.1-2.83,2.13-4.56,2.13-8.04-.71-6.15-2.13-8.02c-1.42-1.87-3.45-2.81-6.1-2.81Z"/>
    <path class="cls-2" d="M470.24,83.54c-.08.11-.3.42-.64.95s-.74,1-1.21,1.4c-1.42,1.27-2.79,2.14-4.11,2.61s-2.88.7-4.65.7c-5.13,0-8.58-1.84-10.36-5.53-1-2.03-1.49-5.03-1.49-8.99v-20.87h9.28v20.87c0,1.97.23,3.45.7,4.45.83,1.76,2.45,2.64,4.86,2.64,3.09,0,5.21-1.25,6.35-3.75.59-1.36.89-3.15.89-5.37v-18.84h9.18v34.63h-8.8v-4.89Z"/>
    <path class="cls-2" d="M501.47,60.51c-3.07,0-5.18,1.3-6.32,3.91-.59,1.38-.89,3.13-.89,5.27v18.74h-9.02v-34.56h8.74v5.05c1.16-1.78,2.27-3.06,3.3-3.84,1.86-1.4,4.23-2.1,7.08-2.1,3.58,0,6.51.94,8.78,2.81s3.42,4.98,3.42,9.32v23.32h-9.28v-21.06c0-1.82-.24-3.22-.73-4.19-.89-1.78-2.58-2.67-5.08-2.67Z"/>
    <path class="cls-2" d="M532.1,94.5c.97.83,2.62,1.24,4.92,1.24,3.26,0,5.44-1.09,6.54-3.27.72-1.4,1.08-3.75,1.08-7.05v-2.22c-.87,1.48-1.8,2.59-2.8,3.34-1.8,1.38-4.14,2.06-7.02,2.06-4.45,0-8-1.56-10.66-4.69-2.66-3.12-3.99-7.35-3.99-12.69s1.28-9.47,3.84-12.98,6.2-5.26,10.9-5.26c1.74,0,3.25.26,4.54.79,2.2.91,3.98,2.58,5.34,5.02v-4.99h8.8v32.85c0,4.47-.75,7.84-2.26,10.1-2.58,3.9-7.54,5.85-14.87,5.85-4.43,0-8.04-.87-10.83-2.61-2.79-1.74-4.34-4.33-4.64-7.78h9.85c.25,1.06.67,1.82,1.24,2.29ZM530.58,76.62c1.23,2.92,3.43,4.38,6.61,4.38,2.12,0,3.91-.8,5.37-2.4,1.46-1.6,2.19-4.15,2.19-7.64,0-3.28-.69-5.78-2.08-7.5-1.39-1.71-3.25-2.57-5.58-2.57-3.18,0-5.37,1.49-6.58,4.48-.64,1.59-.95,3.55-.95,5.88,0,2.01.34,3.8,1.02,5.37Z"/>
    <path class="cls-2" d="M589.1,78.27c-.23,2.05-1.3,4.14-3.21,6.26-2.97,3.37-7.12,5.05-12.45,5.05-4.41,0-8.29-1.42-11.66-4.26-3.37-2.84-5.05-7.46-5.05-13.85,0-5.99,1.52-10.59,4.56-13.79s6.98-4.8,11.83-4.8c2.88,0,5.47.54,7.78,1.62s4.21,2.79,5.72,5.12c1.35,2.05,2.23,4.44,2.64,7.15.23,1.59.33,3.88.29,6.86h-23.7c.13,3.47,1.22,5.91,3.27,7.31,1.25.87,2.75,1.3,4.51,1.3,1.86,0,3.38-.53,4.54-1.59.63-.57,1.2-1.37,1.68-2.38h9.24ZM580.14,67.66c-.15-2.39-.87-4.21-2.18-5.45-1.3-1.24-2.92-1.86-4.84-1.86-2.1,0-3.72.66-4.88,1.97-1.16,1.31-1.88,3.09-2.18,5.34h14.07Z"/>
  </g>
  <path class="cls-1" d="M74.13,12.04c3.26,2.21,5.93,4.98,7.94,8.08,2.02,3.12,3.39,6.57,4.09,10.16.69,3.59.69,7.31-.02,10.94-.72,3.64-2.16,7.2-4.37,10.46-3.69,5.46-6.59,10.19-8.86,14.25-2.29,4.07-3.93,7.47-5.13,10.26-1.2,2.8-1.94,4.99-2.4,6.63-.45,1.64-.62,2.75-.68,3.36-.05-.65-.24-1.81-.81-3.39-.57-1.58-1.51-3.6-3.07-5.94-1.56-2.35-3.75-5.04-6.78-8-3.04-2.95-6.93-6.15-11.92-9.53-3.27-2.21-5.93-4.97-7.95-8.09-2.02-3.11-3.4-6.56-4.09-10.15-.69-3.59-.7-7.31.02-10.95.72-3.64,2.17-7.19,4.38-10.46,2.21-3.26,4.97-5.93,8.07-7.94,3.12-2.02,6.58-3.4,10.16-4.09,3.59-.7,7.3-.71,10.95.01,3.63.72,7.19,2.16,10.46,4.37ZM73.39,45.5c1.43-2.1,2.36-4.4,2.82-6.75.47-2.34.46-4.75.01-7.06-.44-2.32-1.33-4.55-2.63-6.56-1.31-2.01-3.02-3.8-5.13-5.22-2.11-1.43-4.41-2.36-6.76-2.82-2.35-.46-4.75-.46-7.07-.01-2.31.45-4.55,1.33-6.56,2.64-2.01,1.3-3.79,3.02-5.22,5.13-1.43,2.11-2.36,4.4-2.82,6.75-.46,2.35-.46,4.74,0,7.06.44,2.31,1.33,4.55,2.63,6.56,1.31,2,3.03,3.79,5.14,5.22,3.22,2.18,5.74,4.25,7.69,6.15,1.96,1.91,3.37,3.64,4.38,5.16,1,1.52,1.62,2.81,1.99,3.84.37,1.02.49,1.76.51,2.18.04-.39.14-1.11.44-2.16.3-1.07.78-2.48,1.55-4.29.77-1.8,1.84-4,3.31-6.62,1.47-2.63,3.34-5.68,5.72-9.21"/>
  <path class="cls-2" d="M46.38,67.17c3.34,2.1,6.1,4.77,8.22,7.81,2.13,3.04,3.62,6.45,4.44,10.01.81,3.56.94,7.28.35,10.94-.6,3.65-1.91,7.27-4.02,10.61-2.09,3.33-4.77,6.08-7.81,8.21-3.04,2.12-6.45,3.62-10,4.43-3.56.81-7.28.95-10.95.35-3.66-.59-7.26-1.91-10.6-4.01-3.34-2.09-6.09-4.77-8.22-7.81-2.12-3.04-3.61-6.45-4.43-10.02-.81-3.55-.95-7.28-.35-10.94.59-3.66,1.91-7.26,4.01-10.6,3.5-5.58,6.23-10.41,8.37-14.55,2.14-4.15,3.67-7.6,4.77-10.44,1.1-2.82,1.77-5.05,2.17-6.7.4-1.66.54-2.76.57-3.38.07.64.3,1.8.92,3.36.62,1.57,1.64,3.54,3.27,5.83,1.64,2.29,3.91,4.92,7.05,7.76,3.13,2.84,7.14,5.91,12.24,9.11ZM46.83,101.67c1.36-2.16,2.21-4.49,2.59-6.85.38-2.36.3-4.76-.23-7.06-.52-2.3-1.49-4.5-2.86-6.46-1.37-1.96-3.15-3.69-5.31-5.04-3.29-2.07-5.88-4.05-7.91-5.89-2.01-1.84-3.49-3.52-4.54-5.01-1.06-1.48-1.71-2.77-2.12-3.77-.4-1-.55-1.75-.6-2.17-.01.4-.11,1.11-.36,2.17-.26,1.08-.69,2.51-1.39,4.34-.72,1.84-1.71,4.07-3.09,6.74-1.37,2.68-3.14,5.79-5.4,9.4-1.36,2.15-2.21,4.48-2.59,6.84-.39,2.36-.3,4.76.22,7.06.52,2.31,1.49,4.51,2.86,6.46,1.38,1.97,3.15,3.7,5.31,5.04,2.15,1.36,4.48,2.21,6.85,2.59,2.36.38,4.76.29,7.06-.23,2.3-.54,4.5-1.5,6.45-2.86,1.97-1.38,3.7-3.15,5.05-5.31"/>
</svg>